<svg width="180" height="90" viewBox="0 0 180 90" fill="none" xmlns="http://www.w3.org/2000/svg">
<path d="M54.396 49.144C53.964 49.144 53.592 49.084 53.28 48.964C52.976 48.844 52.676 48.668 52.38 48.436L51.948 49H51.648V46.48H51.96C52.056 46.864 52.204 47.232 52.404 47.584C52.604 47.928 52.872 48.212 53.208 48.436C53.552 48.66 53.98 48.772 54.492 48.772C54.948 48.772 55.324 48.688 55.62 48.52C55.924 48.344 56.148 48.124 56.292 47.86C56.444 47.588 56.52 47.308 56.52 47.02C56.52 46.764 56.464 46.54 56.352 46.348C56.248 46.156 56.092 45.992 55.884 45.856C55.676 45.712 55.432 45.588 55.152 45.484C54.872 45.38 54.556 45.288 54.204 45.208C53.628 45.072 53.156 44.88 52.788 44.632C52.428 44.384 52.16 44.084 51.984 43.732C51.808 43.372 51.72 42.956 51.72 42.484C51.72 41.9 51.848 41.412 52.104 41.02C52.36 40.62 52.696 40.32 53.112 40.12C53.528 39.912 53.972 39.808 54.444 39.808C54.828 39.808 55.16 39.864 55.44 39.976C55.728 40.08 56.02 40.248 56.316 40.48L56.628 39.952H56.928V42.4L56.628 42.412C56.436 41.652 56.152 41.088 55.776 40.72C55.4 40.352 54.94 40.168 54.396 40.168C54.068 40.168 53.76 40.236 53.472 40.372C53.192 40.508 52.968 40.692 52.8 40.924C52.632 41.148 52.548 41.408 52.548 41.704C52.548 41.952 52.6 42.16 52.704 42.328C52.808 42.488 52.956 42.624 53.148 42.736C53.34 42.848 53.564 42.944 53.82 43.024C54.084 43.104 54.372 43.188 54.684 43.276C55.26 43.428 55.74 43.628 56.124 43.876C56.508 44.116 56.796 44.428 56.988 44.812C57.188 45.188 57.288 45.656 57.288 46.216C57.288 47.12 57.036 47.836 56.532 48.364C56.036 48.884 55.324 49.144 54.396 49.144ZM61.2626 49.144C60.8706 49.144 60.5026 49.064 60.1586 48.904C59.8226 48.744 59.5226 48.532 59.2586 48.268C59.0026 47.996 58.8026 47.692 58.6586 47.356C58.5146 47.012 58.4426 46.66 58.4426 46.3C58.4426 45.94 58.5146 45.592 58.6586 45.256C58.8026 44.912 59.0026 44.608 59.2586 44.344C59.5226 44.072 59.8226 43.856 60.1586 43.696C60.5026 43.536 60.8706 43.456 61.2626 43.456C61.6546 43.456 62.0186 43.536 62.3546 43.696C62.6986 43.856 62.9986 44.072 63.2546 44.344C63.5186 44.608 63.7226 44.912 63.8666 45.256C64.0106 45.592 64.0826 45.94 64.0826 46.3C64.0826 46.66 64.0106 47.012 63.8666 47.356C63.7226 47.692 63.5186 47.996 63.2546 48.268C62.9986 48.532 62.6986 48.744 62.3546 48.904C62.0186 49.064 61.6546 49.144 61.2626 49.144ZM61.2626 48.784C61.5666 48.784 61.8106 48.716 61.9946 48.58C62.1786 48.444 62.3106 48.2 62.3906 47.848C62.4786 47.488 62.5226 46.972 62.5226 46.3C62.5226 45.628 62.4786 45.112 62.3906 44.752C62.3106 44.392 62.1786 44.148 61.9946 44.02C61.8106 43.884 61.5666 43.816 61.2626 43.816C60.9586 43.816 60.7146 43.884 60.5306 44.02C60.3466 44.148 60.2106 44.392 60.1226 44.752C60.0426 45.112 60.0026 45.628 60.0026 46.3C60.0026 46.972 60.0426 47.488 60.1226 47.848C60.2106 48.2 60.3466 48.444 60.5306 48.58C60.7146 48.716 60.9586 48.784 61.2626 48.784ZM67.2209 49.144C66.7569 49.144 66.3769 49.02 66.0809 48.772C65.7929 48.516 65.6489 48.204 65.6489 47.836V43.78H66.9689V47.8C66.9689 48.096 67.0289 48.32 67.1489 48.472C67.2689 48.624 67.4329 48.7 67.6409 48.7C67.8889 48.7 68.1169 48.592 68.3249 48.376C68.5409 48.16 68.7129 47.868 68.8409 47.5C68.9769 47.132 69.0449 46.72 69.0449 46.264L69.2849 48.064H68.9969C68.8209 48.376 68.5929 48.636 68.3129 48.844C68.0329 49.044 67.6689 49.144 67.2209 49.144ZM69.0449 49V48.7H71.3129V49H69.0449ZM64.7129 43.9V43.6H66.9689V43.9H64.7129ZM69.0449 48.808V43.78H70.3649V48.808H69.0449ZM68.0609 43.9V43.6H70.3649V43.9H68.0609ZM72.5767 48.82V40.144H73.8967V48.82H72.5767ZM71.6287 49V48.7H74.8567V49H71.6287ZM71.6287 40.252V39.952H73.8967V40.252H71.6287ZM77.6521 49V48.7H78.9721V40.252H77.6521V39.952H81.9001V40.252H80.5801V44.2H84.0361V40.252H82.7161V39.952H86.9641V40.252H85.6441V48.7H86.9641V49H82.7161V48.7H84.0361V44.5H80.5801V48.7H81.9001V49H77.6521ZM92.9741 49.144C92.5421 49.144 92.1701 49.084 91.8581 48.964C91.5541 48.844 91.2541 48.668 90.9581 48.436L90.5261 49H90.2261V46.48H90.5381C90.6341 46.864 90.7821 47.232 90.9821 47.584C91.1821 47.928 91.4501 48.212 91.7861 48.436C92.1301 48.66 92.5581 48.772 93.0701 48.772C93.5261 48.772 93.9021 48.688 94.1981 48.52C94.5021 48.344 94.7261 48.124 94.8701 47.86C95.0221 47.588 95.0981 47.308 95.0981 47.02C95.0981 46.764 95.0421 46.54 94.9301 46.348C94.8261 46.156 94.6701 45.992 94.4621 45.856C94.2541 45.712 94.0101 45.588 93.7301 45.484C93.4501 45.38 93.1341 45.288 92.7821 45.208C92.2061 45.072 91.7341 44.88 91.3661 44.632C91.0061 44.384 90.7381 44.084 90.5621 43.732C90.3861 43.372 90.2981 42.956 90.2981 42.484C90.2981 41.9 90.4261 41.412 90.6821 41.02C90.9381 40.62 91.2741 40.32 91.6901 40.12C92.1061 39.912 92.5501 39.808 93.0221 39.808C93.4061 39.808 93.7381 39.864 94.0181 39.976C94.3061 40.08 94.5981 40.248 94.8941 40.48L95.2061 39.952H95.5061V42.4L95.2061 42.412C95.0141 41.652 94.7301 41.088 94.3541 40.72C93.9781 40.352 93.5181 40.168 92.9741 40.168C92.6461 40.168 92.3381 40.236 92.0501 40.372C91.7701 40.508 91.5461 40.692 91.3781 40.924C91.2101 41.148 91.1261 41.408 91.1261 41.704C91.1261 41.952 91.1781 42.16 91.2821 42.328C91.3861 42.488 91.5341 42.624 91.7261 42.736C91.9181 42.848 92.1421 42.944 92.3981 43.024C92.6621 43.104 92.9501 43.188 93.2621 43.276C93.8381 43.428 94.3181 43.628 94.7021 43.876C95.0861 44.116 95.3741 44.428 95.5661 44.812C95.7661 45.188 95.8661 45.656 95.8661 46.216C95.8661 47.12 95.6141 47.836 95.1101 48.364C94.6141 48.884 93.9021 49.144 92.9741 49.144ZM98.8208 49.156C98.4048 49.156 98.0928 49.072 97.8848 48.904C97.6848 48.736 97.5848 48.484 97.5848 48.148V43.912H96.6128V43.612C96.8928 43.588 97.1528 43.48 97.3928 43.288C97.6408 43.088 97.8648 42.836 98.0648 42.532C98.2728 42.228 98.4408 41.896 98.5688 41.536H98.9048V43.612H100.285V43.912H98.9048V48.064C98.9048 48.424 99.0528 48.604 99.3488 48.604C99.5168 48.604 99.6688 48.548 99.8048 48.436C99.9488 48.316 100.097 48.12 100.249 47.848L100.489 47.98C100.289 48.42 100.061 48.728 99.8048 48.904C99.5488 49.072 99.2208 49.156 98.8208 49.156ZM103.303 49.144C102.839 49.144 102.459 49.02 102.163 48.772C101.875 48.516 101.731 48.204 101.731 47.836V43.78H103.051V47.8C103.051 48.096 103.111 48.32 103.231 48.472C103.351 48.624 103.515 48.7 103.723 48.7C103.971 48.7 104.199 48.592 104.407 48.376C104.623 48.16 104.795 47.868 104.923 47.5C105.059 47.132 105.127 46.72 105.127 46.264L105.367 48.064H105.079C104.903 48.376 104.675 48.636 104.395 48.844C104.115 49.044 103.751 49.144 103.303 49.144ZM105.127 49V48.7H107.395V49H105.127ZM100.795 43.9V43.6H103.051V43.9H100.795ZM105.127 48.808V43.78H106.447V48.808H105.127ZM104.143 43.9V43.6H106.447V43.9H104.143ZM110.459 49.144C110.059 49.144 109.679 49.028 109.319 48.796C108.967 48.556 108.679 48.224 108.455 47.8C108.239 47.368 108.131 46.868 108.131 46.3C108.131 45.732 108.239 45.236 108.455 44.812C108.679 44.38 108.967 44.048 109.319 43.816C109.671 43.576 110.047 43.456 110.447 43.456C110.823 43.456 111.151 43.536 111.431 43.696C111.719 43.856 111.927 44.056 112.055 44.296H112.343L112.103 46.12C112.103 45.336 111.959 44.764 111.671 44.404C111.391 44.044 111.035 43.864 110.603 43.864C110.379 43.864 110.199 43.932 110.063 44.068C109.927 44.196 109.827 44.436 109.763 44.788C109.699 45.14 109.667 45.648 109.667 46.312C109.667 46.968 109.695 47.472 109.751 47.824C109.815 48.176 109.915 48.416 110.051 48.544C110.187 48.672 110.367 48.736 110.591 48.736C111.023 48.736 111.383 48.556 111.671 48.196C111.959 47.828 112.103 47.256 112.103 46.48L112.343 48.304H112.055C111.927 48.544 111.723 48.744 111.443 48.904C111.163 49.064 110.835 49.144 110.459 49.144ZM112.103 49V48.7H114.239V49H112.103ZM112.103 48.82V40.144H113.423V48.82H112.103ZM110.915 40.252V39.952H113.423V40.252H110.915ZM115.743 48.82V43.9H117.063V48.82H115.743ZM114.795 49V48.7H118.023V49H114.795ZM114.675 44.008V43.708H117.063V44.008H114.675ZM116.379 41.824C116.163 41.824 115.975 41.748 115.815 41.596C115.663 41.436 115.587 41.248 115.587 41.032C115.587 40.816 115.663 40.632 115.815 40.48C115.975 40.32 116.163 40.24 116.379 40.24C116.595 40.24 116.779 40.32 116.931 40.48C117.091 40.632 117.171 40.816 117.171 41.032C117.171 41.248 117.091 41.436 116.931 41.596C116.779 41.748 116.595 41.824 116.379 41.824ZM121.708 49.144C121.316 49.144 120.948 49.064 120.604 48.904C120.268 48.744 119.968 48.532 119.704 48.268C119.448 47.996 119.248 47.692 119.104 47.356C118.96 47.012 118.888 46.66 118.888 46.3C118.888 45.94 118.96 45.592 119.104 45.256C119.248 44.912 119.448 44.608 119.704 44.344C119.968 44.072 120.268 43.856 120.604 43.696C120.948 43.536 121.316 43.456 121.708 43.456C122.1 43.456 122.464 43.536 122.8 43.696C123.144 43.856 123.444 44.072 123.7 44.344C123.964 44.608 124.168 44.912 124.312 45.256C124.456 45.592 124.528 45.94 124.528 46.3C124.528 46.66 124.456 47.012 124.312 47.356C124.168 47.692 123.964 47.996 123.7 48.268C123.444 48.532 123.144 48.744 122.8 48.904C122.464 49.064 122.1 49.144 121.708 49.144ZM121.708 48.784C122.012 48.784 122.256 48.716 122.44 48.58C122.624 48.444 122.756 48.2 122.836 47.848C122.924 47.488 122.968 46.972 122.968 46.3C122.968 45.628 122.924 45.112 122.836 44.752C122.756 44.392 122.624 44.148 122.44 44.02C122.256 43.884 122.012 43.816 121.708 43.816C121.404 43.816 121.16 43.884 120.976 44.02C120.792 44.148 120.656 44.392 120.568 44.752C120.488 45.112 120.448 45.628 120.448 46.3C120.448 46.972 120.488 47.488 120.568 47.848C120.656 48.2 120.792 48.444 120.976 48.58C121.16 48.716 121.404 48.784 121.708 48.784Z" fill="#111111"/>
</svg>
